<?xml version="1.0" encoding="UTF-8" standalone="no"?>
<!-- Created with Inkscape (http://www.inkscape.org/) -->

<svg
   width="3843.3931"
   height="3000"
   viewBox="0 0 3843.3931 3000"
   version="1.1"
   id="svg5"
   xmlns:xlink="http://www.w3.org/1999/xlink"
   xmlns="http://www.w3.org/2000/svg"
   xmlns:svg="http://www.w3.org/2000/svg">
  <defs
     id="defs2">
    <linearGradient
       id="linearGradient4948">
      <stop
         style="stop-color:#17ffc4;stop-opacity:1"
         offset="0"
         id="stop4944" />
      <stop
         style="stop-color:#3632ff;stop-opacity:1"
         offset="0.49341217"
         id="stop5176" />
      <stop
         style="stop-color:#7429ff;stop-opacity:1"
         offset="1"
         id="stop4946" />
    </linearGradient>
    <linearGradient
       id="linearGradient3303">
      <stop
         style="stop-color:#db1bbd;stop-opacity:1"
         offset="0"
         id="stop3299" />
      <stop
         style="stop-color:#8e25ff;stop-opacity:1"
         offset="1"
         id="stop3301" />
    </linearGradient>
    <linearGradient
       id="linearGradient1358">
      <stop
         style="stop-color:#3632ff;stop-opacity:1"
         offset="0"
         id="stop1354" />
      <stop
         style="stop-color:#8526ff;stop-opacity:1"
         offset="1"
         id="stop1356" />
    </linearGradient>
    <linearGradient
       xlink:href="#linearGradient1358"
       id="linearGradient1360"
       x1="3352.03"
       y1="-221.94904"
       x2="716.92853"
       y2="4034.7874"
       gradientUnits="userSpaceOnUse"
       gradientTransform="matrix(1.0346348,0,0,0.98206435,-66.461463,-1112.9731)" />
    <linearGradient
       xlink:href="#linearGradient3303"
       id="linearGradient3497"
       gradientUnits="userSpaceOnUse"
       x1="402.44128"
       y1="5066.2231"
       x2="3127.9534"
       y2="452.07324"
       gradientTransform="matrix(1.0000561,0,0,0.76309177,-0.11212361,-376.06984)" />
    <linearGradient
       xlink:href="#linearGradient4948"
       id="linearGradient4542"
       x1="-133.65038"
       y1="5589.9922"
       x2="-266.20093"
       y2="166.3756"
       gradientUnits="userSpaceOnUse"
       gradientTransform="matrix(1,0,0,0.49929233,0,33.165232)" />
  </defs>
  <g
     id="layer1"
     transform="translate(2.775977,0.6668654)"
     style="display:none">
    <path
       style="fill:url(#linearGradient1360);fill-opacity:1;stroke:#000000;stroke-width:1.11239px;stroke-linecap:butt;stroke-linejoin:miter;stroke-opacity:1"
       d="M 3906.2394,1470.2274 C 3089.8077,2922.1494 1288.2768,1749.4115 794.8291,2879.8364 438.38241,3696.4095 -1222.299,3542.8055 -1222.299,3542.8055 L -66.24547,722.69544 l 0.80405,-1834.57384 3972.04512,-1.2076 z"
       id="path876" />
  </g>
  <g
     id="layer2"
     style="display:none">
    <path
       style="fill:url(#linearGradient3497);fill-opacity:1;stroke:#000000;stroke-width:0.873579px;stroke-linecap:butt;stroke-linejoin:miter;stroke-opacity:1"
       d="m -732.1996,-201.25811 c 654.444289,208.3633216 840.89033,611.08533 1763.6853,518.62677 987.2078,-98.91234 2262.8222,-634.31432 3161.2944,170.71853 1070.6555,959.30941 22.2096,4362.42851 22.2096,4362.42851 0,0 -1996.6129,-543.6705 -2817.4461,-287.8741 C 387.45122,4877.4168 -803.84465,4352.6527 -543.63374,3547.7643 -379.2951,3039.4295 -732.1996,-201.25811 -732.1996,-201.25811 Z"
       id="path3195" />
  </g>
  <g
     id="layer3"
     style="display:inline">
    <path
       style="fill:url(#linearGradient4542);fill-opacity:1;stroke:none;stroke-width:0.706606px;stroke-linecap:butt;stroke-linejoin:miter;stroke-opacity:1"
       d="M -266.20094,-44.366819 C 244.01753,343.29345 3693.5381,-110.82286 4492.1409,719.87771 4761.6104,1000.1778 4248.1234,2652.641 4248.1234,2652.641 l -66.5502,88.6081 c 0,0 -2417.9919,-431.9642 -4436.68244,-11.076 -1108.14296,231.0432 -11.0917,-2774.539919 -11.0917,-2774.539919 z"
       id="path4534" />
  </g>
</svg>
